<svg width="326" height="184" viewBox="0 0 326 184" fill="none" xmlns="http://www.w3.org/2000/svg">
<rect width="326" height="184" rx="20" fill="url(#paint0_linear_361_52)"/>
<rect y="24" width="326" height="42" fill="black"/>
<rect x="14" y="87" width="139" height="29" fill="#CBCAD7"/>
<rect x="236" y="133" width="69" height="35" rx="17.5" fill="#282828"/>
<path d="M249.99 156V144.825H253.635C254.845 144.825 255.895 145.065 256.785 145.545C257.675 146.025 258.365 146.685 258.855 147.525C259.345 148.365 259.59 149.325 259.59 150.405C259.59 151.485 259.345 152.45 258.855 153.3C258.365 154.14 257.675 154.8 256.785 155.28C255.895 155.76 254.845 156 253.635 156H249.99ZM252.315 153.975H253.695C254.425 153.975 255.055 153.83 255.585 153.54C256.115 153.24 256.525 152.825 256.815 152.295C257.115 151.755 257.265 151.125 257.265 150.405C257.265 149.675 257.115 149.045 256.815 148.515C256.525 147.985 256.115 147.575 255.585 147.285C255.055 146.995 254.425 146.85 253.695 146.85H252.315V153.975ZM265.359 156.18C264.489 156.18 263.734 155.99 263.094 155.61C262.454 155.22 261.959 154.7 261.609 154.05C261.259 153.4 261.084 152.68 261.084 151.89C261.084 151.07 261.264 150.34 261.624 149.7C261.994 149.06 262.489 148.555 263.109 148.185C263.729 147.815 264.429 147.63 265.209 147.63C265.859 147.63 266.434 147.735 266.934 147.945C267.434 148.145 267.854 148.43 268.194 148.8C268.544 149.17 268.809 149.6 268.989 150.09C269.169 150.57 269.259 151.095 269.259 151.665C269.259 151.825 269.249 151.985 269.229 152.145C269.219 152.295 269.194 152.425 269.154 152.535H263.019V150.885H267.879L266.814 151.665C266.914 151.235 266.909 150.855 266.799 150.525C266.689 150.185 266.494 149.92 266.214 149.73C265.944 149.53 265.609 149.43 265.209 149.43C264.819 149.43 264.484 149.525 264.204 149.715C263.924 149.905 263.714 150.185 263.574 150.555C263.434 150.925 263.379 151.375 263.409 151.905C263.369 152.365 263.424 152.77 263.574 153.12C263.724 153.47 263.954 153.745 264.264 153.945C264.574 154.135 264.949 154.23 265.389 154.23C265.789 154.23 266.129 154.15 266.409 153.99C266.699 153.83 266.924 153.61 267.084 153.33L268.884 154.185C268.724 154.585 268.469 154.935 268.119 155.235C267.779 155.535 267.374 155.77 266.904 155.94C266.434 156.1 265.919 156.18 265.359 156.18ZM275.674 156.18C275.114 156.18 274.594 156.08 274.114 155.88C273.644 155.67 273.264 155.365 272.974 154.965L273.184 154.5V156H271.084V144.645H273.334V149.37L272.989 148.92C273.259 148.51 273.624 148.195 274.084 147.975C274.554 147.745 275.089 147.63 275.689 147.63C276.469 147.63 277.174 147.82 277.804 148.2C278.434 148.58 278.934 149.095 279.304 149.745C279.674 150.385 279.859 151.105 279.859 151.905C279.859 152.695 279.674 153.415 279.304 154.065C278.944 154.715 278.449 155.23 277.819 155.61C277.189 155.99 276.474 156.18 275.674 156.18ZM275.404 154.155C275.824 154.155 276.194 154.06 276.514 153.87C276.834 153.68 277.084 153.415 277.264 153.075C277.444 152.735 277.534 152.345 277.534 151.905C277.534 151.465 277.444 151.08 277.264 150.75C277.084 150.41 276.834 150.145 276.514 149.955C276.194 149.755 275.824 149.655 275.404 149.655C275.004 149.655 274.644 149.75 274.324 149.94C274.014 150.13 273.769 150.395 273.589 150.735C273.419 151.075 273.334 151.465 273.334 151.905C273.334 152.345 273.419 152.735 273.589 153.075C273.769 153.415 274.014 153.68 274.324 153.87C274.644 154.06 275.004 154.155 275.404 154.155ZM281.677 156V147.81H283.927V156H281.677ZM281.677 147.075V144.825H283.927V147.075H281.677ZM290.018 156.09C289.028 156.09 288.258 155.825 287.708 155.295C287.168 154.755 286.898 154.005 286.898 153.045V149.76H285.518V147.81H285.593C286.013 147.81 286.333 147.705 286.553 147.495C286.783 147.285 286.898 146.97 286.898 146.55V145.95H289.148V147.81H291.068V149.76H289.148V152.895C289.148 153.175 289.198 153.41 289.298 153.6C289.398 153.78 289.553 153.915 289.763 154.005C289.973 154.095 290.233 154.14 290.543 154.14C290.613 154.14 290.693 154.135 290.783 154.125C290.873 154.115 290.968 154.105 291.068 154.095V156C290.918 156.02 290.748 156.04 290.558 156.06C290.368 156.08 290.188 156.09 290.018 156.09Z" fill="#AFAFAF"/>
<defs>
<linearGradient id="paint0_linear_361_52" x1="164.124" y1="-30.5053" x2="170.611" y2="207.048" gradientUnits="userSpaceOnUse">
<stop stop-color="#9C2CF3"/>
<stop offset="1" stop-color="#3A6FF9"/>
</linearGradient>
</defs>
</svg>
